<svg width="91" height="112" viewBox="0 0 91 112" fill="none" xmlns="http://www.w3.org/2000/svg">
<path d="M4.04983 83.165L4.05021 83.1652L54.6663 109.855L4.04983 83.165ZM4.04983 83.165C3.27595 82.7578 2.59008 82.2018 2.03156 81.5289C1.47305 80.856 1.05287 80.0795 0.795126 79.2439C0.537382 78.4082 0.447145 77.5299 0.529596 76.6593C0.612046 75.7888 0.865554 74.943 1.27559 74.1706L1.2762 74.1695M4.04983 83.165L1.2762 74.1695M1.2762 74.1695L38.2652 4.05368M1.2762 74.1695L38.2652 4.05368M38.2652 4.05368C38.2652 4.05358 38.2653 4.05348 38.2653 4.05339M38.2652 4.05368L38.2653 4.05339M38.2653 4.05339C39.0943 2.49194 40.5075 1.32203 42.1963 0.799247C43.885 0.27648 45.712 0.443293 47.2782 1.26323C47.2783 1.26331 47.2785 1.26339 47.2786 1.26347L79.2597 18.1203L90.4632 56.4545L63.6797 107.065L38.2653 4.05339ZM59.7486 110.319C61.4372 109.796 62.8504 108.626 63.6794 107.065L59.7486 110.319ZM59.7486 110.319C58.0601 110.842 56.2335 110.675 54.6675 109.855L59.7486 110.319Z" fill="#029491" stroke="black"/>
<g opacity="0.3">
<path d="M69.6978 37.7285C69.6979 37.7283 69.698 37.7281 69.6981 37.7279L79.5462 19.0996L90.189 55.5154L72.2693 46.0661C72.269 46.0659 72.2687 46.0657 72.2684 46.0656C70.8257 45.2972 69.7457 43.9892 69.264 42.4273C68.7823 40.8652 68.9383 39.176 69.6978 37.7285Z" fill="white" stroke="black"/>
</g>
<g opacity="0.2">
<path d="M72.0331 46.5078L71.7866 46.9428L71.7932 46.9466L71.7999 46.9501L90.3281 56.7204C90.2773 56.8192 90.2192 56.932 90.1553 57.056C89.9143 57.5237 89.5903 58.1512 89.2581 58.7902C88.9256 59.4295 88.5856 60.0793 88.3123 60.5922C88.1909 60.82 88.0834 61.0195 87.9959 61.1785C87.9247 61.1348 87.8428 61.083 87.7503 61.0228C87.3276 60.7478 86.7286 60.3282 86.002 59.8026C84.551 58.7529 82.615 57.2979 80.614 55.7735C76.6194 52.7306 72.3777 49.4212 71.2478 48.5363L70.7045 48.0861C70.7044 48.086 70.7043 48.0859 70.7041 48.0858C69.4936 47.0777 68.6638 45.6862 68.3523 44.142C68.2668 43.7185 68.2218 43.2905 68.2164 42.8634C68.5187 43.6701 68.9715 44.3647 69.4474 44.9345C69.9902 45.5844 70.5709 46.0833 71.0143 46.4194C71.2366 46.5879 71.4262 46.7167 71.5616 46.8043C71.6294 46.8481 71.6838 46.8817 71.7221 46.9048C71.7413 46.9164 71.7565 46.9254 71.7673 46.9317L71.7803 46.9393L71.7843 46.9415L71.7857 46.9423L71.7862 46.9426C71.7864 46.9427 71.7866 46.9428 72.0331 46.5078Z" fill="black" stroke="black"/>
</g>
<path d="M53.729 28.2511C55.0346 28.9419 56.2846 29.6139 57.4466 30.2484C56.2561 29.6388 54.9833 28.9764 53.6629 28.2778C52.3031 27.5583 51.0028 26.8599 49.7991 26.2032C51.031 26.8344 52.3538 27.5234 53.729 28.2511Z" fill="#FAFAFA" stroke="black"/>
<path d="M55.3279 43.491C52.7097 42.1085 50.221 40.7747 47.9588 39.5456C50.241 40.7216 52.737 42.0233 55.3477 43.4019C58.1087 44.8598 60.7266 46.2593 63.087 47.5379C60.7056 46.3126 58.0805 44.9444 55.3279 43.491Z" fill="#FAFAFA" stroke="black"/>
<path d="M52.1562 53.6494C50.4656 52.7549 48.8238 51.8815 47.253 51.0413C48.8342 51.8652 50.4826 52.7295 52.1757 53.623C54.1183 54.6482 55.9961 55.6469 57.7755 56.6004C55.984 55.667 54.0995 54.6776 52.1562 53.6494Z" fill="#FAFAFA" stroke="black"/>
<path d="M47.5101 62.441C45.354 61.3031 43.2779 60.1979 41.3274 59.151C43.291 60.1708 45.3741 61.2613 47.5301 62.3991C49.7008 63.5447 51.7917 64.6572 53.7554 65.7105C51.7788 64.6845 49.6811 63.5867 47.5101 62.441Z" fill="#FAFAFA" stroke="black"/>
<path d="M42.8775 71.2175C41.3337 70.4007 39.8309 69.6014 38.3858 68.829C39.8412 69.5868 41.3508 70.3772 42.8975 71.1913C44.9302 72.2613 46.8904 73.3032 48.7406 74.2954C46.8766 73.3249 44.9092 72.2924 42.8775 71.2175Z" fill="#FAFAFA" stroke="black"/>
<path d="M38.2624 80.0092C36.3403 78.9935 34.4806 78.0038 32.7162 77.0583C34.4866 77.9795 36.3477 78.9546 38.2664 79.9672C40.3099 81.0456 42.2816 82.0948 44.1427 83.0928C42.2734 82.1205 40.3 81.086 38.2624 80.0092Z" fill="#FAFAFA" stroke="black"/>
</svg>
