<svg width="439" height="479" viewBox="0 0 439 479" fill="none" xmlns="http://www.w3.org/2000/svg">
<g filter="url(#filter0_d_7_37867)">
<path d="M395.556 118.723H95.8242V343.945H395.556V118.723Z" fill="white"/>
<path d="M395.556 343.945C395.556 343.945 395.556 343.584 395.556 342.891C395.556 342.199 395.556 341.165 395.556 339.811C395.556 337.101 395.556 333.087 395.506 327.839C395.506 317.363 395.446 301.969 395.395 282.321C395.345 243.085 395.265 186.829 395.175 118.753L395.606 119.184L95.9048 119.274L96.4266 118.753C96.4266 199.734 96.4266 276.41 96.4266 343.975L95.955 343.503L312.287 343.734L373.73 343.865L390.037 343.925H394.241H395.315H394.261H390.117L373.901 343.985L312.568 344.116L95.9249 344.346H95.3529V343.875C95.3529 276.31 95.3529 199.634 95.3027 118.652V118.13H95.8547L395.556 118.231H395.997V118.652C395.907 186.889 395.837 243.225 395.777 282.522C395.727 302.13 395.696 317.483 395.666 327.939C395.666 333.147 395.666 337.141 395.666 339.831C395.666 341.165 395.666 342.179 395.666 342.841C395.666 343.503 395.556 343.945 395.556 343.945Z" fill="#263238"/>
<path d="M394.051 146.308C393.801 146.341 393.55 146.357 393.298 146.359H391.07L382.521 146.449C375.105 146.509 364.358 146.539 351.091 146.529C324.539 146.529 287.872 146.339 247.371 146.007L143.651 145.174L112.211 144.924L103.672 144.823L101.444 144.763C101.194 144.792 100.941 144.792 100.691 144.763C100.94 144.718 101.192 144.701 101.444 144.713H103.672L112.211 144.623C119.637 144.562 130.375 144.532 143.651 144.532C170.193 144.532 206.87 144.733 247.381 145.064L351.091 145.897L382.531 146.138L391.07 146.248H393.298C393.55 146.242 393.803 146.262 394.051 146.308Z" fill="#263238"/>
<path d="M115.402 130.122C115.404 130.821 115.199 131.506 114.811 132.088C114.424 132.67 113.872 133.125 113.227 133.393C112.581 133.662 111.87 133.733 111.184 133.597C110.497 133.461 109.867 133.124 109.372 132.63C108.878 132.135 108.541 131.505 108.405 130.819C108.269 130.132 108.34 129.421 108.609 128.776C108.877 128.13 109.332 127.578 109.914 127.191C110.496 126.803 111.181 126.598 111.88 126.6C112.814 126.602 113.708 126.974 114.368 127.634C115.028 128.294 115.4 129.189 115.402 130.122Z" fill="#263238"/>
<path d="M129.522 130.122C129.524 130.821 129.318 131.505 128.931 132.087C128.544 132.669 127.993 133.123 127.348 133.392C126.703 133.661 125.992 133.733 125.306 133.597C124.62 133.462 123.99 133.127 123.495 132.633C123 132.14 122.663 131.51 122.526 130.825C122.389 130.139 122.458 129.428 122.725 128.782C122.992 128.136 123.445 127.584 124.026 127.196C124.607 126.807 125.29 126.6 125.989 126.6C126.924 126.6 127.821 126.97 128.483 127.631C129.146 128.291 129.519 129.187 129.522 130.122V130.122Z" fill="#263238"/>
<path d="M140.108 133.694C142.059 133.694 143.641 132.113 143.641 130.162C143.641 128.211 142.059 126.63 140.108 126.63C138.158 126.63 136.576 128.211 136.576 130.162C136.576 132.113 138.158 133.694 140.108 133.694Z" fill="#263238"/>
<path d="M209.659 277.042H148.065V323.153H209.659V277.042Z" fill="#EBEBEB"/>
<path d="M277.306 277.042H215.712V323.153H277.306V277.042Z" fill="#EBEBEB"/>
<path d="M356.138 277.042H294.544V323.153H356.138V277.042Z" fill="#EBEBEB"/>
<path d="M256.115 256.167C227.123 236.899 230.502 196.723 237.994 179.566L260.597 175.627C252.97 185.028 252.166 219.115 261.784 226.473C271.401 233.832 289.289 233.741 296.365 223.91C301.928 216.193 302.704 198.316 312.102 196.878C308.164 176.921 322.301 155.131 342.128 150.604C343.204 144.974 345.541 139.661 348.963 135.063C352.385 130.465 356.804 126.701 361.888 124.054C366.972 121.407 372.589 119.945 378.318 119.778C384.047 119.611 389.74 120.744 394.969 123.09L394.535 187.774C394.535 187.774 400.696 218.466 381.541 225.626C374.998 228.071 368.511 226.646 362.993 224.012C362.571 224.993 361.966 225.886 361.21 226.641C358.238 229.549 353.597 230.308 349.51 229.436C348.983 229.323 348.493 229.186 347.956 229.009C343.65 242.243 331.304 256.469 319.876 262.418C303.344 271.077 271.711 266.525 256.115 256.167Z" fill="#F5F5F5"/>
<path d="M315.92 203.719C315.92 203.719 315.892 203.609 315.794 203.4L315.365 202.507C315.168 202.111 314.931 201.622 314.698 201.03C314.464 200.438 314.151 199.764 313.904 198.978C312.338 194.552 311.652 189.862 311.885 185.172C312.029 181.957 312.621 178.778 313.644 175.726C314.801 172.201 316.55 168.899 318.817 165.962C324.044 159.183 331.527 154.503 339.909 152.768C341.11 152.509 342.329 152.377 343.459 152.239L343.68 152.219L343.691 152.004C344.076 147.071 345.496 142.274 347.858 137.927C350.22 133.579 353.471 129.778 357.4 126.77C358.769 125.768 360.195 124.847 361.671 124.011C364.311 122.487 367.13 121.297 370.063 120.466C374.295 119.232 378.749 118.96 383.1 119.671C383.875 119.778 384.539 119.936 385.124 120.071C385.617 120.175 386.105 120.303 386.586 120.456L387.486 120.707C387.586 120.745 387.69 120.768 387.797 120.773C387.797 120.773 387.702 120.717 387.503 120.659L386.62 120.359C386.143 120.185 385.656 120.041 385.16 119.93C384.578 119.773 383.91 119.601 383.11 119.455C378.723 118.664 374.213 118.882 369.922 120.091C366.952 120.905 364.097 122.091 361.424 123.62C359.923 124.453 358.476 125.378 357.089 126.389C355.628 127.487 354.255 128.7 352.984 130.014C347.242 135.946 343.747 143.692 343.098 151.922L343.335 151.678C338.436 152.162 333.69 153.651 329.392 156.052C325.095 158.453 321.339 161.715 318.358 165.633C316.069 168.613 314.307 171.964 313.149 175.539C312.126 178.644 311.546 181.878 311.423 185.145C311.216 189.874 311.962 194.596 313.617 199.03C313.862 199.727 314.144 200.41 314.461 201.077C314.669 201.579 314.905 202.068 315.169 202.543C315.373 202.908 315.529 203.197 315.644 203.417C315.727 203.525 315.82 203.626 315.92 203.719V203.719Z" fill="#263238"/>
<path d="M304.174 209.34C304.273 209.328 304.182 208.436 304.431 207.045C304.582 206.237 304.82 205.448 305.142 204.692C305.547 203.77 306.061 202.899 306.671 202.099C307.309 201.316 308.037 200.611 308.841 199.999C309.502 199.509 310.216 199.094 310.968 198.761C312.267 198.198 313.152 198.08 313.136 197.989C313.12 197.897 312.909 197.959 312.501 197.999C311.929 198.072 311.368 198.215 310.83 198.423C310.022 198.715 309.258 199.115 308.557 199.611C306.822 200.835 305.477 202.534 304.683 204.503C304.362 205.302 304.15 206.141 304.052 206.996C303.972 207.569 303.967 208.149 304.036 208.723C304.098 209.132 304.146 209.347 304.174 209.34Z" fill="#263238"/>
<path d="M314.383 233.657C314.383 233.657 314.431 233.022 314.648 231.903C314.957 230.312 315.58 228.798 316.48 227.451C317.82 225.416 319.779 223.867 322.067 223.032C324.919 221.999 328.059 222.095 330.843 223.301L331.231 223.472L331.206 223.061C331.156 221.69 331.261 220.318 331.52 218.971C332.186 215.503 333.815 212.294 336.222 209.71C338.22 207.628 340.675 206.041 343.393 205.073C345.227 204.419 347.149 204.044 349.093 203.96C350.473 203.911 351.242 203.991 351.236 203.941C351.057 203.886 350.872 203.855 350.685 203.849C350.154 203.784 349.62 203.753 349.085 203.757C346.621 203.769 344.184 204.273 341.916 205.239C339.649 206.204 337.597 207.612 335.88 209.38C334.143 211.201 332.788 213.352 331.897 215.706C331.006 218.06 330.596 220.569 330.691 223.084L331.059 222.835C328.149 221.567 324.861 221.479 321.886 222.588C319.522 223.479 317.514 225.117 316.166 227.253C315.271 228.649 314.68 230.218 314.431 231.857C314.365 232.297 314.332 232.741 314.334 233.186C314.328 233.345 314.344 233.503 314.383 233.657V233.657Z" fill="#263238"/>
<path d="M241.466 241.022C241.579 241.269 241.711 241.507 241.862 241.733C242.146 242.18 242.549 242.86 243.117 243.695C244.756 246.035 246.608 248.218 248.649 250.218C251.686 253.161 255.055 255.742 258.689 257.907C260.834 259.192 263.052 260.352 265.331 261.38C267.774 262.496 270.278 263.474 272.83 264.309C281.791 267.287 291.196 268.71 300.637 268.516C303.493 268.46 306.339 268.15 309.14 267.587C310.123 267.363 310.887 267.173 311.393 267.005C311.656 266.938 311.913 266.848 312.159 266.734C311.889 266.771 311.622 266.828 311.36 266.904C310.846 267.044 310.085 267.189 309.095 267.386C306.299 267.87 303.468 268.125 300.631 268.151C291.249 268.236 281.918 266.773 273.012 263.822C270.478 262.996 267.991 262.028 265.565 260.923C263.296 259.913 261.087 258.77 258.951 257.502C255.324 255.37 251.949 252.837 248.888 249.951C246.857 247.992 244.992 245.868 243.312 243.601C242.716 242.795 242.302 242.132 242.006 241.666C241.844 241.437 241.663 241.221 241.466 241.022V241.022Z" fill="#263238"/>
<path d="M256.711 217.787C256.781 218.241 256.912 218.683 257.102 219.101C257.511 220.252 258.026 221.363 258.64 222.419C260.655 225.952 263.611 228.856 267.179 230.807C270.747 232.758 274.787 233.68 278.849 233.469C280.065 233.416 281.273 233.251 282.459 232.976C282.903 232.894 283.335 232.758 283.747 232.571C282.122 232.836 280.483 233.01 278.839 233.091C274.861 233.198 270.926 232.249 267.435 230.34C263.944 228.432 261.021 225.632 258.964 222.226C258.119 220.796 257.366 219.314 256.711 217.787V217.787Z" fill="#263238"/>
<path d="M252.198 172.424C254.277 176.635 255.5 181.216 255.797 185.903C255.834 186.57 255.661 187.231 255.301 187.794C254.942 188.356 254.414 188.792 253.794 189.038C253.173 189.284 252.491 189.329 251.843 189.166C251.196 189.003 250.616 188.64 250.186 188.129L250.117 188.088C250.813 193.788 251.13 199.528 251.067 205.27C251.065 206.078 250.813 206.865 250.347 207.524C249.88 208.183 249.221 208.681 248.46 208.951C247.699 209.221 246.873 209.248 246.095 209.03C245.318 208.812 244.627 208.358 244.117 207.732C234.891 196.504 230.05 182.31 230.494 167.785L252.198 172.424Z" fill="#029491"/>
<g opacity="0.3">
<path d="M249.678 177.648C250.073 178.346 250.324 179.116 250.417 179.912C250.459 180.31 250.385 180.711 250.204 181.067C250.023 181.424 249.742 181.72 249.396 181.92C248.308 182.443 246.924 181.569 245.853 182.161C244.782 182.753 244.858 184.382 245.142 185.621L246.058 189.539C246.284 190.5 246.426 191.701 245.608 192.279C244.79 192.857 243.49 192.277 242.685 191.546C240.82 189.824 239.4 187.676 238.547 185.284C237.695 182.893 237.435 180.33 237.791 177.816L249.678 177.648Z" fill="black"/>
</g>
<path d="M250.651 223.068C251.425 223.563 251.974 224.341 252.179 225.235C252.385 226.13 252.231 227.07 251.751 227.852C251.271 228.634 250.502 229.197 249.611 229.418C248.721 229.64 247.778 229.503 246.988 229.037C246.197 228.571 245.621 227.813 245.383 226.926C245.146 226.039 245.266 225.095 245.718 224.296C246.17 223.497 246.917 222.907 247.8 222.654C248.682 222.4 249.628 222.504 250.435 222.941" fill="#029491"/>
<path d="M240.036 2.64008C245.268 2.43932 255.385 15.5901 265.158 37.8219C270.937 50.9292 274.584 64.8764 275.96 79.1352L279.63 176.28L254.039 177.247L239.191 177.814L213.6 178.78L210.272 90.6195C209.94 81.995 210.436 73.3586 211.753 64.8288C213.033 56.2805 215 47.8491 217.634 39.6166C225.165 16.6237 234.809 2.83219 240.036 2.64008Z" fill="#F5F5F5"/>
<path d="M211.321 117.868L211.082 118.076C204.153 124.084 198.662 131.573 195.016 139.989C191.369 148.405 189.661 157.532 190.016 166.697L190.458 178.338L212.965 161.4L211.321 117.868Z" fill="#029491"/>
<path d="M211.321 117.867L211.328 118.093L211.343 118.719L211.439 121.105L211.702 130.125L212.794 161.392L212.865 161.271L192.387 176.725L190.355 178.196L190.614 178.348L190.346 171.492C190.277 169.238 190.143 167.016 190.153 164.844C190.121 160.664 190.511 156.492 191.32 152.392C192.043 148.685 193.121 145.057 194.538 141.557C195.157 139.895 195.936 138.374 196.62 136.878C197.304 135.383 198.095 134.02 198.911 132.754C201.343 128.691 204.242 124.927 207.55 121.538C208.688 120.299 209.69 119.469 210.305 118.841L211.282 117.914L211.015 118.13L210.278 118.708C209.634 119.307 208.614 120.127 207.459 121.357C204.097 124.728 201.155 128.492 198.695 132.568C197.87 133.829 197.125 135.231 196.376 136.7C195.627 138.168 194.899 139.72 194.266 141.385C192.83 144.901 191.735 148.546 190.995 152.27C190.176 156.392 189.776 160.586 189.802 164.788C189.789 166.982 189.92 169.191 189.998 171.45L190.274 178.334L190.287 178.668L190.557 178.466L192.588 176.996L213.098 161.548L213.139 161.479L213.174 161.419L211.885 130.012L211.506 121.052L211.41 118.665C211.396 118.412 211.396 118.214 211.379 118.065L211.321 117.867Z" fill="#263238"/>
<path d="M277.355 115.381C277.355 115.381 277.485 115.458 277.623 115.539C284.883 120.934 290.838 127.891 295.049 135.895C299.26 143.9 301.62 152.748 301.954 161.787L302.392 173.274L278.982 158.31L277.355 115.381Z" fill="#029491"/>
<path d="M277.355 115.381L277.351 115.565L277.373 116.161L277.426 118.522L277.723 127.364L278.799 158.342L278.807 158.428L278.867 158.464C285.436 162.674 292.639 167.292 300.19 172.128C300.916 172.556 301.612 173.036 302.262 173.454L302.547 173.622L302.535 173.289L302.282 166.524C302.184 164.299 302.146 162.11 301.971 159.957C301.687 155.819 300.98 151.722 299.861 147.728C298.861 144.125 297.513 140.627 295.837 137.284C295.102 135.685 294.207 134.238 293.415 132.816C292.623 131.394 291.735 130.113 290.812 128.952C288.106 125.128 284.952 121.642 281.417 118.568C280.185 117.457 279.129 116.718 278.447 116.177C278.109 115.919 277.853 115.722 277.644 115.563C277.434 115.405 277.358 115.395 277.358 115.395C277.523 115.492 277.793 115.744 278.38 116.23C278.967 116.716 280.098 117.546 281.311 118.669C284.82 121.764 287.956 125.258 290.655 129.08C291.548 130.271 292.333 131.608 293.24 132.934C294.147 134.261 294.896 135.797 295.628 137.382C297.282 140.718 298.612 144.205 299.6 147.796C300.701 151.77 301.397 155.845 301.679 159.959C301.842 162.094 301.874 164.291 301.972 166.516L302.225 173.281L302.492 173.124C301.826 172.731 301.126 172.26 300.429 171.803C292.872 166.975 285.656 162.361 279.082 158.159L279.158 158.286L277.906 127.448L277.526 118.569L277.43 116.183L277.396 115.569L277.355 115.381Z" fill="#263238"/>
<path d="M240.035 2.64123C244.074 2.33101 251.058 10.3035 258.521 24.1616L221.784 28.0512C228.151 13.435 234.858 3.02571 240.035 2.64123Z" fill="#029491"/>
<path d="M213.692 162.934C213.703 163.034 228.34 162.646 246.388 162.067C264.435 161.488 279.078 160.952 279.067 160.852C279.056 160.753 264.477 161.14 246.38 161.724C228.283 162.309 213.689 162.839 213.692 162.934Z" fill="#263238"/>
<path d="M214.105 165.869C214.064 165.938 228.745 165.576 246.792 164.997C264.839 164.418 279.483 163.882 279.472 163.782C279.461 163.683 264.84 164.08 246.784 164.655C228.729 165.229 214.094 165.769 214.105 165.869Z" fill="#263238"/>
<path d="M214.159 168.976C214.171 169.076 228.808 168.688 246.856 168.109C264.903 167.53 279.546 166.994 279.535 166.894C279.524 166.795 264.904 167.192 246.848 167.767C228.792 168.341 214.157 168.881 214.159 168.976Z" fill="#263238"/>
<path d="M214.224 172.09C214.235 172.189 228.878 171.793 246.92 171.223C264.962 170.652 279.623 170.068 279.579 170.043C279.536 170.017 264.948 170.341 246.892 170.915C228.836 171.489 214.227 171.986 214.224 172.09Z" fill="#263238"/>
<path d="M214.267 175.179C214.226 175.249 228.907 174.887 246.963 174.312C265.019 173.738 279.645 173.192 279.642 173.098C279.64 173.003 265.011 173.396 246.955 173.97C228.899 174.544 214.308 175.11 214.267 175.179Z" fill="#263238"/>
<path d="M244.219 116.7C244.219 116.7 244.142 116.83 244.16 117.155C244.178 117.48 244.14 117.9 244.128 118.475C244.119 119.635 244.163 121.28 244.229 123.322C244.347 127.411 244.582 133.059 244.88 139.292C245.178 145.525 245.476 151.164 245.711 155.251L246.016 160.09L246.119 161.397C246.116 161.551 246.136 161.703 246.177 161.851C246.191 161.697 246.193 161.542 246.182 161.388L246.152 160.077L245.956 155.232L245.203 139.296L244.453 123.338L244.226 118.545C244.211 117.977 244.175 117.525 244.187 117.229L244.219 116.7Z" fill="#263238"/>
<path d="M211.322 117.867C211.333 117.967 225.994 117.5 244.062 116.828C262.129 116.156 276.796 115.541 276.793 115.446C276.791 115.351 262.13 115.818 244.054 116.485C225.978 117.153 211.32 117.773 211.322 117.867Z" fill="#263238"/>
<path d="M240.129 148.931C240.016 148.808 239.868 148.721 239.705 148.681C239.274 148.507 238.795 148.488 238.351 148.628C238.011 148.721 237.701 148.902 237.453 149.153C237.205 149.403 237.028 149.715 236.938 150.056C236.807 150.481 236.813 150.937 236.954 151.359C237.096 151.781 237.366 152.148 237.727 152.408C238.088 152.668 238.521 152.809 238.966 152.81C239.411 152.811 239.846 152.673 240.208 152.414C240.504 152.222 240.745 151.956 240.906 151.642C241.066 151.327 241.141 150.976 241.123 150.624C241.121 150.171 240.971 149.731 240.697 149.371C240.489 149.131 240.314 149.052 240.304 149.069C240.294 149.087 240.425 149.199 240.587 149.458C240.817 149.811 240.935 150.225 240.924 150.646C240.92 150.951 240.837 151.249 240.682 151.511C240.527 151.773 240.307 151.991 240.042 152.142C239.732 152.346 239.368 152.451 238.997 152.443C238.626 152.434 238.266 152.314 237.966 152.096C237.665 151.878 237.438 151.574 237.315 151.225C237.191 150.875 237.177 150.495 237.275 150.137C237.343 149.843 237.486 149.571 237.691 149.349C237.895 149.126 238.154 148.961 238.442 148.869C238.829 148.723 239.25 148.696 239.653 148.79C239.967 148.87 240.114 148.957 240.129 148.931Z" fill="#263238"/>
<path d="M239.072 130.172C239.072 130.172 238.961 130.025 238.649 129.922C238.217 129.748 237.738 129.729 237.294 129.869C236.954 129.962 236.644 130.143 236.396 130.394C236.148 130.644 235.971 130.956 235.882 131.297C235.75 131.722 235.756 132.178 235.897 132.6C236.039 133.022 236.309 133.389 236.67 133.649C237.031 133.909 237.464 134.05 237.909 134.051C238.355 134.052 238.789 133.914 239.151 133.655C239.447 133.463 239.688 133.197 239.849 132.883C240.01 132.568 240.085 132.217 240.066 131.865C240.058 131.415 239.907 130.979 239.635 130.62C239.534 130.486 239.4 130.379 239.247 130.31C239.247 130.31 239.363 130.449 239.526 130.707C239.755 131.06 239.873 131.475 239.862 131.896C239.859 132.199 239.777 132.495 239.623 132.756C239.469 133.017 239.249 133.233 238.985 133.383C238.676 133.587 238.312 133.693 237.941 133.686C237.571 133.679 237.211 133.559 236.91 133.342C236.609 133.126 236.381 132.823 236.257 132.473C236.132 132.124 236.117 131.745 236.213 131.387C236.282 131.091 236.426 130.818 236.631 130.594C236.837 130.371 237.096 130.204 237.385 130.11C237.772 129.97 238.191 129.946 238.591 130.04C238.91 130.111 239.057 130.198 239.072 130.172Z" fill="#263238"/>
<path d="M248.096 100.557C247.978 100.44 247.832 100.354 247.672 100.308C247.239 100.141 246.763 100.122 246.318 100.254C245.966 100.347 245.645 100.533 245.391 100.794C245.137 101.055 244.959 101.379 244.875 101.734C244.745 102.159 244.752 102.615 244.894 103.036C245.037 103.457 245.308 103.823 245.669 104.083C246.031 104.342 246.464 104.482 246.909 104.482C247.354 104.482 247.788 104.342 248.149 104.083C248.446 103.892 248.687 103.625 248.847 103.311C249.008 102.997 249.083 102.646 249.065 102.293C249.061 101.842 248.91 101.405 248.633 101.049C248.421 100.796 248.256 100.721 248.245 100.738C248.332 100.873 248.427 101.003 248.529 101.127C248.752 101.483 248.869 101.895 248.865 102.315C248.86 102.619 248.775 102.917 248.621 103.179C248.466 103.441 248.247 103.659 247.984 103.811C247.665 103.991 247.304 104.081 246.938 104.071C246.573 104.061 246.217 103.951 245.909 103.753C245.621 103.524 245.403 103.218 245.282 102.871C245.161 102.523 245.142 102.148 245.226 101.789C245.294 101.495 245.438 101.223 245.642 101.001C245.847 100.778 246.106 100.613 246.394 100.521C246.781 100.375 247.202 100.348 247.605 100.442C247.934 100.496 248.081 100.583 248.096 100.557Z" fill="#263238"/>
<path d="M252.063 87.3449C251.972 87.3611 251.781 93.911 251.602 101.96C251.424 110.009 251.439 116.564 251.538 116.553C251.638 116.542 251.821 109.987 252 101.938C252.178 93.889 252.184 87.3577 252.063 87.3449Z" fill="#263238"/>
<g opacity="0.3">
<path d="M278.929 157.195C278.929 157.195 277.212 129.042 277.355 115.381C280.321 121.87 283.654 129.298 284.51 136.384C285.311 143.774 283.32 151.197 278.929 157.195V157.195Z" fill="black"/>
</g>
<path d="M238.224 89.0672C227.626 86.3959 221.201 75.6393 223.872 65.0418C226.543 54.4442 237.3 48.0188 247.897 50.6902C258.495 53.3615 264.92 64.1181 262.249 74.7156C259.578 85.3131 248.821 91.7386 238.224 89.0672Z" fill="white"/>
<path d="M234.001 87.4959C233.915 87.4307 233.822 87.376 233.724 87.3329C233.516 87.2106 233.248 87.0526 232.911 86.8539C232.467 86.6032 232.043 86.3182 231.643 86.0015C231.074 85.6048 230.533 85.1691 230.024 84.6975C228.606 83.4331 227.382 81.9661 226.393 80.3441C225.076 78.2005 224.179 75.8256 223.75 73.3463C223.188 70.1228 223.444 66.8096 224.495 63.7107C225.546 60.6119 227.359 57.8268 229.767 55.6109C231.138 54.3207 232.701 53.2498 234.399 52.4357C235.271 52.0102 236.17 51.641 237.089 51.3305C238.032 51.06 238.99 50.8468 239.958 50.6921C244.065 50.0294 248.277 50.7 251.975 52.6054C255.673 54.5108 258.664 57.5509 260.508 61.28C260.947 62.148 261.33 63.0429 261.655 63.9593C261.94 64.8876 262.16 65.8348 262.314 66.7938C262.639 68.6509 262.676 70.547 262.425 72.4155C261.982 75.8701 260.63 79.1452 258.507 81.9064C256.801 84.1022 254.649 85.9121 252.194 87.217C249.738 88.522 247.034 89.2925 244.259 89.4779C242.365 89.6166 240.46 89.4713 238.608 89.0469C237.929 88.9049 237.259 88.7204 236.604 88.4945C236.114 88.3525 235.636 88.1721 235.174 87.9549C234.82 87.8045 234.532 87.6811 234.304 87.5934C234.21 87.5454 234.109 87.5098 234.006 87.4873C234.093 87.5492 234.186 87.6037 234.282 87.6504C234.49 87.7727 234.783 87.8874 235.127 88.0551C235.583 88.2924 236.058 88.4908 236.548 88.6481C237.195 88.8894 237.858 89.0855 238.532 89.235C240.396 89.7245 242.326 89.9186 244.25 89.8101C247.079 89.6543 249.842 88.8968 252.356 87.588C254.869 86.2792 257.073 84.4494 258.823 82.2206C261.025 79.3967 262.432 76.035 262.897 72.4841C263.161 70.569 263.128 68.6247 262.8 66.7195C262.506 64.7213 261.89 62.7842 260.974 60.9838C260.054 59.1087 258.839 57.3936 257.376 55.9038C255.861 54.3757 254.122 53.0875 252.219 52.0836C248.425 50.1427 244.111 49.4602 239.902 50.1349C238.898 50.2907 237.906 50.5199 236.935 50.8206C235.994 51.1416 235.074 51.5213 234.18 51.9572C232.445 52.7985 230.849 53.9003 229.447 55.2244C226.826 57.6626 224.906 60.7573 223.884 64.1877C223.084 66.9075 222.872 69.7666 223.264 72.5745C223.655 75.3824 224.641 78.0745 226.155 80.4716C227.171 82.1101 228.431 83.5838 229.892 84.8414C230.411 85.3154 230.968 85.7452 231.558 86.1261C231.967 86.4358 232.401 86.711 232.855 86.9489C233.192 87.1477 233.46 87.3057 233.668 87.428C233.775 87.4646 233.887 87.4874 234.001 87.4959V87.4959Z" fill="#263238"/>
<path d="M240.036 2.64029C239.959 2.6412 239.882 2.64638 239.805 2.65584C239.574 2.66659 239.346 2.70832 239.126 2.77988C238.259 3.05432 237.449 3.48461 236.735 4.04965C234.05 6.30723 231.761 8.99653 229.96 12.007C226.987 16.714 224.416 21.6632 222.275 26.8021C219.372 33.6253 216.961 40.6476 215.061 47.8151C214.022 51.8159 213.084 56.0426 212.246 60.4951C211.382 65.1388 210.755 69.8235 210.367 74.5308C209.965 79.589 209.842 84.6655 210 89.7371L210.592 105.905L213.327 178.748L213.336 179.01L213.598 179.001C224.193 178.595 235.297 178.174 246.608 177.759C257.918 177.345 269.024 176.902 279.628 176.501L279.884 176.501L279.875 176.239L277.133 103.369L276.505 87.2027L276.19 79.5157C276.038 76.968 275.665 74.4772 275.349 72.0306C273.916 63.0893 271.642 54.3034 268.556 45.7898C265.935 38.8467 262.87 32.0791 259.381 25.5291C256.825 20.587 253.9 15.8451 250.631 11.3437C248.65 8.4614 246.214 5.92 243.418 3.81869C242.673 3.29746 241.837 2.91937 240.953 2.70371C240.727 2.65071 240.494 2.62706 240.261 2.63336C240.183 2.6259 240.105 2.62652 240.027 2.63519C240.334 2.64133 240.639 2.6805 240.937 2.75203C241.806 2.9859 242.627 3.3748 243.358 3.90003C246.141 6.02881 248.564 8.58979 250.536 11.4855C253.77 15.9982 256.664 20.7452 259.194 25.6871C262.631 32.2353 265.65 38.9948 268.232 45.9248C271.284 54.4228 273.526 63.19 274.929 72.1096C275.294 74.5145 275.635 76.9987 275.777 79.5051L276.062 87.2217L276.668 103.386L279.38 176.25L279.632 175.979L246.617 177.229L213.607 178.471L213.878 178.723L211.098 105.877L210.492 89.7127C210.324 84.6573 210.434 79.5965 210.82 74.5531C211.197 69.6849 211.861 65.0209 212.654 60.5728C213.447 56.1247 214.361 51.8873 215.397 47.8968C217.27 40.7417 219.652 33.7295 222.524 26.9138C224.628 21.7757 227.158 16.8225 230.088 12.1058C231.866 9.10045 234.123 6.40585 236.77 4.12855C237.47 3.55962 238.263 3.11669 239.115 2.81955C239.417 2.73724 239.725 2.67733 240.036 2.64029V2.64029Z" fill="#263238"/>
<path d="M332.829 261.981H158.554C153.09 261.981 147.85 259.81 143.986 255.946C140.123 252.083 137.952 246.843 137.952 241.379C137.952 235.915 140.123 230.675 143.986 226.811C147.85 222.948 153.09 220.777 158.554 220.777H332.829C338.293 220.777 343.533 222.948 347.397 226.811C351.26 230.675 353.431 235.915 353.431 241.379V241.379C353.431 246.843 351.26 252.083 347.397 255.946C343.533 259.81 338.293 261.981 332.829 261.981Z" fill="white"/>
<path d="M332.828 261.98L334.052 261.89C334.557 261.881 335.061 261.831 335.558 261.739C336.251 261.653 336.938 261.522 337.615 261.348L338.839 261.027C339.261 260.886 339.692 260.716 340.154 260.545L340.856 260.284L341.569 259.933C342.077 259.709 342.57 259.451 343.044 259.16C345.361 257.827 347.39 256.046 349.014 253.922C349.499 253.317 349.939 252.676 350.329 252.006C350.759 251.315 351.138 250.594 351.463 249.848C351.815 249.07 352.123 248.272 352.386 247.46C352.497 247.038 352.607 246.617 352.717 246.175L352.888 245.523L352.988 244.851L353.199 243.476L353.259 242.071V241.349V240.626C353.259 240.134 353.259 239.623 353.169 239.151C352.921 237.105 352.383 235.105 351.573 233.21C349.713 229.015 346.516 225.554 342.482 223.366C340.296 222.198 337.916 221.44 335.457 221.128C332.929 220.847 330.269 220.988 327.57 220.958L158.593 221.038C156.555 221.066 154.53 221.366 152.572 221.931C150.649 222.553 148.819 223.435 147.133 224.55C145.493 225.683 144.014 227.033 142.738 228.564C141.498 230.123 140.484 231.849 139.727 233.692C138.996 235.531 138.524 237.463 138.322 239.432C138.161 241.387 138.262 243.354 138.623 245.282C139.379 249.107 141.222 252.633 143.932 255.438C146.588 258.201 149.974 260.153 153.696 261.067C154.607 261.294 155.532 261.462 156.465 261.569C157.409 261.569 158.332 261.699 159.285 261.679H186.881L262.855 261.739L314.033 261.82L327.961 261.87H331.584H332.818H331.584H327.961H314.033L262.855 261.96L186.881 262.01H159.285C158.342 262.01 157.369 261.94 156.415 261.9C155.459 261.79 154.51 261.619 153.575 261.388C149.752 260.459 146.271 258.462 143.541 255.628C142.168 254.196 141 252.582 140.068 250.832C139.148 249.058 138.473 247.167 138.061 245.212C137.694 243.227 137.592 241.203 137.76 239.191C138.142 235.111 139.716 231.234 142.286 228.042C144.893 224.805 148.409 222.421 152.381 221.199C154.381 220.615 156.45 220.304 158.533 220.275L327.51 220.346C330.209 220.346 332.848 220.245 335.437 220.546C337.951 220.856 340.384 221.631 342.612 222.834C346.705 225.069 349.942 228.598 351.814 232.869C352.631 234.79 353.168 236.817 353.41 238.89C353.46 239.392 353.46 239.894 353.49 240.385V241.118V241.84C353.49 242.322 353.44 242.844 353.42 243.275C353.4 243.707 353.269 244.209 353.199 244.66L353.099 245.342L352.928 246.005C352.808 246.446 352.697 246.878 352.587 247.299C352.256 248.122 352.035 248.965 351.644 249.718C351.306 250.469 350.917 251.197 350.48 251.895C350.08 252.565 349.634 253.205 349.145 253.812C347.505 255.945 345.459 257.733 343.124 259.07C342.64 259.352 342.141 259.607 341.629 259.833L340.906 260.174L340.204 260.435C339.732 260.606 339.301 260.776 338.869 260.907L337.645 261.218C336.962 261.39 336.268 261.514 335.568 261.589C335.07 261.669 334.567 261.713 334.062 261.719L332.828 261.98Z" fill="#263238"/>
<path d="M331.414 245.562C334.995 241.98 334.995 236.173 331.413 232.591C327.832 229.009 322.024 229.009 318.443 232.591C314.861 236.173 314.861 241.98 318.443 245.562C322.024 249.143 327.832 249.143 331.414 245.562Z" fill="white"/>
<path d="M324.921 249.918C323.007 249.92 321.135 249.354 319.543 248.292C317.95 247.23 316.709 245.719 315.976 243.951C315.242 242.183 315.05 240.237 315.423 238.36C315.796 236.482 316.717 234.758 318.071 233.404C319.424 232.051 321.149 231.129 323.026 230.756C324.904 230.383 326.849 230.576 328.618 231.309C330.386 232.043 331.896 233.284 332.958 234.877C334.021 236.469 334.587 238.341 334.585 240.255C334.582 242.817 333.563 245.273 331.751 247.085C329.939 248.897 327.483 249.916 324.921 249.918V249.918ZM324.921 231.585C323.206 231.583 321.528 232.089 320.101 233.041C318.674 233.992 317.561 235.346 316.904 236.93C316.246 238.514 316.073 240.257 316.406 241.94C316.74 243.622 317.565 245.168 318.777 246.382C319.989 247.595 321.534 248.422 323.216 248.757C324.898 249.093 326.642 248.922 328.227 248.266C329.811 247.61 331.166 246.499 332.119 245.073C333.072 243.647 333.581 241.97 333.581 240.255C333.581 237.957 332.669 235.753 331.045 234.128C329.421 232.502 327.219 231.587 324.921 231.585Z" fill="#263238"/>
<path d="M332.585 245.251L332.049 246.1L339.813 251.002L340.348 250.153L332.585 245.251Z" fill="#263238"/>
<path d="M69.7062 438.834L70.3184 468.016L31.9049 468.919C32.0353 465.447 51.7238 458.011 51.7238 458.011L50.5196 439.336L69.7062 438.834Z" fill="#455A64"/>
<g opacity="0.6">
<path d="M63.5636 456.165C63.9256 456.251 64.2419 456.47 64.4501 456.779C64.6582 457.087 64.743 457.462 64.6875 457.83C64.586 458.195 64.351 458.508 64.0293 458.706C63.7076 458.905 63.3228 458.976 62.9515 458.904C62.7508 458.877 62.5582 458.808 62.3867 458.7C62.2152 458.593 62.0688 458.45 61.9573 458.281C61.8458 458.112 61.7718 457.921 61.7405 457.721C61.7091 457.521 61.721 457.317 61.7753 457.122C61.8297 456.927 61.9253 456.746 62.0556 456.591C62.1859 456.436 62.348 456.311 62.5308 456.224C62.7137 456.137 62.913 456.09 63.1154 456.087C63.3178 456.084 63.5186 456.124 63.7041 456.205" fill="white"/>
</g>
<g opacity="0.6">
<path d="M70.3184 468.016L70.1277 465.075L33.37 467.082C33.37 467.082 31.6841 467.825 31.9049 468.959L70.3184 468.016Z" fill="white"/>
</g>
<path d="M51.101 457.84C51.101 458.021 52.0443 458.081 52.9876 458.633C53.9309 459.185 54.4326 459.908 54.6032 459.837C54.7738 459.767 54.4728 458.744 53.3188 458.101C52.1648 457.459 51.0509 457.68 51.101 457.84Z" fill="#263238"/>
<path d="M47.1069 459.516C47.1069 459.687 47.8896 459.968 48.5519 460.701C49.2142 461.433 49.4149 462.226 49.5554 462.216C49.6959 462.206 49.8363 461.212 49.0034 460.299C48.1706 459.386 47.1069 459.346 47.1069 459.516Z" fill="#263238"/>
<path d="M44.9394 464.122C45.11 464.122 45.3508 463.269 44.8491 462.306C44.3474 461.343 43.4543 460.982 43.374 461.132C43.2937 461.283 43.8557 461.784 44.257 462.577C44.6584 463.37 44.7588 464.112 44.9394 464.122Z" fill="#263238"/>
<path d="M51.3415 453.556C51.4218 453.716 52.2848 453.455 53.3485 453.496C54.4122 453.536 55.2451 453.837 55.3554 453.686C55.4658 453.536 54.6329 452.914 53.3485 452.883C52.064 452.853 51.2311 453.425 51.3415 453.556Z" fill="#263238"/>
<path d="M52.1245 449.23C52.7604 449.379 53.4238 449.362 54.0512 449.18C54.7421 449.047 55.4155 448.835 56.0581 448.548C56.4316 448.378 56.7936 448.183 57.1419 447.966C57.3539 447.849 57.5468 447.7 57.7139 447.525C57.8337 447.4 57.9055 447.237 57.9165 447.064C57.9275 446.891 57.8771 446.72 57.7741 446.581C57.6766 446.454 57.5501 446.353 57.4052 446.284C57.2603 446.216 57.1012 446.184 56.9412 446.19C56.7 446.196 56.4605 446.233 56.2287 446.3C55.8188 446.405 55.4191 446.546 55.0346 446.722C54.399 447.009 53.8131 447.395 53.2986 447.866C52.4255 448.658 52.1345 449.331 52.2048 449.361C52.275 449.391 52.7065 448.859 53.5996 448.187C54.1205 447.801 54.6867 447.481 55.2855 447.234C55.6451 447.095 56.0139 446.981 56.3893 446.892C56.7907 446.782 57.1319 446.772 57.2423 446.892C57.3526 447.013 57.2423 446.983 57.2423 447.103C57.1207 447.229 56.9822 447.337 56.8308 447.424C56.5061 447.632 56.1712 447.822 55.8273 447.996C55.2366 448.293 54.6182 448.532 53.9809 448.709C53.3501 448.837 52.7296 449.011 52.1245 449.23V449.23Z" fill="#263238"/>
<path d="M52.3466 449.481C52.6935 448.961 52.856 448.339 52.8082 447.715C52.8291 447.033 52.7236 446.352 52.4971 445.708C52.3604 445.327 52.1856 444.961 51.9753 444.615C51.8571 444.373 51.6804 444.165 51.4614 444.009C51.2423 443.853 50.9879 443.754 50.721 443.721C50.5529 443.729 50.3902 443.783 50.2505 443.877C50.1108 443.971 49.9993 444.101 49.9282 444.253C49.8339 444.466 49.7762 444.693 49.7576 444.926C49.6919 445.331 49.6919 445.744 49.7576 446.15C49.8859 446.831 50.1826 447.469 50.6206 448.006C51.4033 448.93 52.1861 449.12 52.2061 449.06C52.2262 449 51.604 448.649 51.002 447.755C50.6609 447.246 50.438 446.666 50.3497 446.06C50.2946 445.71 50.2946 445.355 50.3497 445.006C50.3497 444.625 50.5403 444.303 50.6909 444.344C50.8414 444.384 51.2227 444.615 51.3833 444.926C51.5814 445.244 51.7494 445.58 51.885 445.929C52.1164 446.506 52.2586 447.115 52.3065 447.735C52.457 448.789 52.2764 449.451 52.3466 449.481Z" fill="#263238"/>
<path d="M98.817 441.263L102.52 470.213L140.652 465.477C140.01 462.065 119.449 457.6 119.449 457.6L117.903 438.945L98.817 441.263Z" fill="#455A64"/>
<g opacity="0.6">
<path d="M107.427 457.499C107.08 457.637 106.797 457.9 106.635 458.237C106.473 458.573 106.444 458.959 106.554 459.316C106.71 459.659 106.99 459.932 107.337 460.08C107.684 460.229 108.074 460.243 108.43 460.119C108.799 459.974 109.099 459.694 109.269 459.336C109.439 458.978 109.465 458.569 109.344 458.192C109.143 457.861 108.828 457.614 108.459 457.498C108.09 457.382 107.691 457.404 107.337 457.56" fill="white"/>
</g>
<g opacity="0.6">
<path d="M102.519 470.214L102.268 467.273L138.915 463.842C138.915 463.842 140.651 464.283 140.651 465.477L102.519 470.214Z" fill="white"/>
</g>
<path d="M120.001 457.339C120.001 457.519 119.098 457.71 118.245 458.393C117.392 459.075 117 459.868 116.82 459.817C116.639 459.767 116.82 458.724 117.823 457.921C118.827 457.118 120.021 457.168 120.001 457.339Z" fill="#263238"/>
<path d="M124.186 458.402C124.256 458.573 123.484 458.974 122.942 459.797C122.4 460.62 122.309 461.423 122.129 461.443C121.948 461.463 121.697 460.44 122.39 459.436C123.082 458.433 124.166 458.262 124.186 458.402Z" fill="#263238"/>
<path d="M127.006 462.647C126.845 462.708 126.484 461.865 126.845 460.841C127.206 459.818 128.029 459.326 128.12 459.456C128.21 459.587 127.738 460.179 127.457 461.022C127.176 461.865 127.196 462.607 127.006 462.647Z" fill="#263238"/>
<path d="M119.149 453.134C119.088 453.304 118.205 453.134 117.142 453.365C116.078 453.595 115.315 453.977 115.205 453.836C115.095 453.696 115.797 452.973 117.031 452.753C118.266 452.532 119.229 452.983 119.149 453.134Z" fill="#263238"/>
<path d="M117.724 448.97C117.117 449.205 116.461 449.281 115.817 449.191C115.117 449.167 114.422 449.056 113.75 448.859C113.352 448.752 112.963 448.615 112.586 448.448C112.358 448.364 112.145 448.245 111.954 448.097C111.818 447.99 111.724 447.84 111.687 447.671C111.651 447.503 111.674 447.327 111.753 447.174C111.835 447.035 111.947 446.918 112.081 446.829C112.214 446.74 112.367 446.683 112.526 446.662C112.765 446.631 113.008 446.631 113.248 446.662C113.666 446.702 114.08 446.783 114.482 446.903C115.156 447.092 115.796 447.387 116.379 447.776C117.382 448.438 117.734 449.06 117.673 449.1C117.613 449.14 117.101 448.669 116.128 448.147C115.218 447.647 114.213 447.346 113.178 447.264C112.756 447.214 112.415 447.264 112.335 447.434C112.255 447.605 112.335 447.535 112.405 447.635C112.546 447.741 112.701 447.826 112.867 447.886C113.215 448.051 113.573 448.192 113.94 448.307C114.569 448.511 115.213 448.659 115.867 448.749C116.491 448.775 117.111 448.849 117.724 448.97V448.97Z" fill="#263238"/>
<path d="M117.512 449.231C117.093 448.764 116.843 448.171 116.8 447.545C116.68 446.881 116.68 446.202 116.8 445.538C116.873 445.141 116.991 444.754 117.151 444.384C117.23 444.128 117.373 443.896 117.566 443.71C117.759 443.524 117.996 443.39 118.255 443.32C118.422 443.301 118.591 443.329 118.743 443.4C118.895 443.47 119.025 443.582 119.118 443.722C119.237 443.923 119.328 444.139 119.389 444.364C119.507 444.757 119.558 445.168 119.539 445.578C119.526 446.287 119.325 446.979 118.957 447.585C118.325 448.589 117.573 448.92 117.542 448.86C117.512 448.799 118.084 448.358 118.546 447.394C118.806 446.839 118.94 446.232 118.937 445.618C118.935 445.278 118.881 444.939 118.777 444.615C118.676 444.233 118.486 443.942 118.335 444.003C118.185 444.063 117.864 444.354 117.743 444.675C117.595 444.999 117.474 445.335 117.382 445.678C117.248 446.284 117.197 446.905 117.231 447.525C117.332 448.579 117.573 449.231 117.512 449.231Z" fill="#263238"/>
<path d="M39.9138 283.967L99.7116 285.883C99.7116 285.883 113.811 379.99 113.419 386.543L122.109 454.78L96.8215 455.673C96.8215 455.673 92.8076 433.526 90.0681 418.374C88.2216 408.339 84.8499 393.507 83.9368 385.088C83.0236 376.669 68.2322 317.854 68.2322 317.854C68.2322 317.854 69.326 386.091 69.2959 388.901C69.2658 391.711 72.2261 455.593 72.2261 455.593H47.1389C45.8444 444.063 42.7637 397.922 42.1215 388.6C40.9173 371.762 37.104 324.196 36.5923 312.044C36.0805 299.892 39.9138 283.967 39.9138 283.967Z" fill="#263238"/>
<path d="M43.8565 284.428C44.1364 283.013 44.1364 281.558 43.8565 280.143C43.5622 281.556 43.5622 283.015 43.8565 284.428V284.428Z" fill="#455A64"/>
<path d="M41.3678 285.562C41.8439 283.757 41.6844 281.844 40.9163 280.143C40.9435 281.051 41.0306 281.956 41.1772 282.852C41.18 283.759 41.2437 284.664 41.3678 285.562V285.562Z" fill="#455A64"/>
<path d="M63.704 281.077C64.1894 281.176 64.6315 281.426 64.9684 281.789C65.1366 281.98 65.2606 282.206 65.3317 282.451C65.4028 282.695 65.4192 282.952 65.3798 283.204C65.2948 283.493 65.1317 283.752 64.9086 283.954C64.6855 284.156 64.4111 284.292 64.1154 284.348C63.8198 284.405 63.5144 284.378 63.2329 284.272C62.9514 284.165 62.7047 283.983 62.5199 283.746C62.3931 283.526 62.315 283.281 62.2908 283.028C62.2665 282.776 62.2968 282.521 62.3794 282.281C62.5554 281.815 62.8799 281.42 63.3026 281.157C63.3026 281.157 63.132 281.157 62.8812 281.267C62.5248 281.47 62.2486 281.789 62.0985 282.17C61.9729 282.454 61.9148 282.763 61.9287 283.073C61.9426 283.383 62.0282 283.685 62.1787 283.957C62.3998 284.275 62.7085 284.523 63.0675 284.67C63.4265 284.817 63.8204 284.857 64.2015 284.785C64.5827 284.713 64.9347 284.531 65.2151 284.263C65.4954 283.995 65.6921 283.652 65.7812 283.274C65.8223 282.966 65.7912 282.652 65.6901 282.358C65.5891 282.063 65.4211 281.796 65.1992 281.578C64.9159 281.281 64.5416 281.087 64.1355 281.026C63.8546 280.996 63.704 281.056 63.704 281.077Z" fill="#455A64"/>
<path d="M91.2711 384.927C93.4544 384.266 95.5929 383.465 97.6734 382.529C99.8113 381.729 101.896 380.794 103.915 379.729C101.73 380.394 99.588 381.195 97.5028 382.128C95.3692 382.93 93.2879 383.865 91.2711 384.927V384.927Z" fill="#455A64"/>
<path d="M94.4916 142.525C94.3009 139.043 92.1535 136.895 89.1531 135.119C87.6404 134.241 85.9381 133.742 84.191 133.663C82.4438 133.584 80.7036 133.929 79.1182 134.668C77.0109 135.671 75.1645 137.377 72.8564 137.678C69.0432 138.17 65.4407 134.668 61.7077 135.52C60.5939 135.788 59.607 136.432 58.9146 137.344C58.2222 138.257 57.8671 139.381 57.9097 140.525C57.9522 141.67 58.3898 142.764 59.1481 143.623C59.9063 144.481 60.9384 145.051 62.069 145.234C59.5703 145.595 58.1654 148.756 59.0585 151.095C59.9516 153.433 62.5908 154.807 65.0794 154.858C67.6143 154.777 70.0785 154.003 72.2042 152.62C74.3817 151.356 76.4188 149.83 78.6967 148.746C80.9329 147.539 83.5233 147.159 86.0122 147.673C89.3136 148.546 91.6517 151.687 92.5047 154.958C93.3577 158.229 92.9964 161.752 92.5047 165.123C92.013 168.495 91.3407 171.897 91.6618 175.299C91.6594 175.492 91.7017 175.683 91.7852 175.857C91.8688 176.031 91.9914 176.183 92.1435 176.302C92.6452 176.583 93.2272 176.112 93.5985 175.67C97.8245 170.656 101.023 164.859 103.011 158.611C104.165 154.998 104.797 151.476 103.423 147.944C102.048 144.411 97.4017 141.05 94.4515 142.485" fill="#263238"/>
<path d="M97.7325 159.343L92.1631 193.733C91.1596 200.155 86.945 206.367 76.87 204.259C68.2601 201.771 68.9023 195.579 70.0262 187.943C70.0262 187.943 60.5533 185.484 61.4063 175.851C61.8077 171.194 63.4132 161.681 65.0088 153.092C65.8232 148.644 68.2825 144.665 71.8974 141.949C75.5123 139.232 80.0175 137.976 84.5166 138.431L85.4498 138.521C95.3944 140.157 99.599 149.449 97.7325 159.343Z" fill="#FFBE9D"/>
<path d="M70.0273 187.943C74.467 188.377 78.9381 187.531 82.9121 185.504C82.9121 185.504 79.139 192.649 69.636 190.823L70.0273 187.943Z" fill="#EB996E"/>
<path d="M66.8961 161.511C66.8562 161.868 66.9578 162.227 67.1791 162.51C67.4004 162.793 67.7239 162.979 68.0802 163.026C68.2532 163.059 68.4311 163.057 68.6032 163.019C68.7753 162.982 68.938 162.909 69.0815 162.807C69.225 162.705 69.3462 162.575 69.438 162.424C69.5298 162.274 69.5902 162.107 69.6155 161.932C69.6554 161.575 69.5538 161.216 69.3325 160.933C69.1112 160.65 68.7877 160.465 68.4314 160.417C68.2585 160.386 68.081 160.389 67.9095 160.427C67.738 160.465 67.5758 160.538 67.4327 160.64C67.2895 160.742 67.1683 160.871 67.0761 161.021C66.984 161.171 66.9227 161.337 66.8961 161.511Z" fill="#263238"/>
<path d="M66.5948 158.019C66.7454 158.22 67.8693 157.547 69.3444 157.708C70.8195 157.868 71.833 158.711 72.0137 158.541C72.1943 158.37 71.9535 158.129 71.522 157.738C70.9251 157.229 70.1856 156.917 69.4046 156.845C68.6359 156.76 67.8605 156.929 67.1969 157.326C66.7052 157.628 66.5246 157.929 66.5948 158.019Z" fill="#263238"/>
<path d="M80.3531 163.638C80.3132 163.996 80.4148 164.354 80.6361 164.637C80.8575 164.921 81.1809 165.106 81.5372 165.154C81.7102 165.187 81.8882 165.184 82.0603 165.147C82.2324 165.109 82.395 165.037 82.5385 164.935C82.682 164.832 82.8033 164.702 82.895 164.552C82.9868 164.402 83.0472 164.234 83.0726 164.06C83.1125 163.703 83.0109 163.344 82.7895 163.061C82.5682 162.777 82.2447 162.592 81.8884 162.545C81.7155 162.513 81.5381 162.516 81.3665 162.555C81.195 162.593 81.0328 162.665 80.8897 162.767C80.7466 162.869 80.6253 162.999 80.5332 163.148C80.441 163.298 80.3798 163.465 80.3531 163.638V163.638Z" fill="#263238"/>
<path d="M80.8155 159.755C80.9761 159.945 82.09 159.283 83.5651 159.434C85.0402 159.584 86.0537 160.437 86.2344 160.277C86.415 160.116 86.1742 159.865 85.7427 159.474C85.1458 158.965 84.4063 158.653 83.6253 158.581C82.858 158.5 82.0848 158.665 81.4176 159.052C80.9259 159.353 80.7453 159.665 80.8155 159.755Z" fill="#263238"/>
<path d="M74.6337 170.181C73.8805 169.852 73.0878 169.623 72.2755 169.499C71.9042 169.428 71.553 169.318 71.5129 169.047C71.5238 168.655 71.6494 168.275 71.8741 167.953C72.3257 167.08 72.7973 166.157 73.279 165.194C75.286 161.26 76.7009 158.009 76.5403 157.928C75.0816 160.167 73.7999 162.515 72.707 164.953L71.3423 167.743C71.0652 168.174 70.9447 168.688 71.0011 169.198C71.0404 169.338 71.1117 169.467 71.2091 169.575C71.3066 169.682 71.4277 169.766 71.563 169.82C71.768 169.892 71.9799 169.942 72.1952 169.97C72.9964 170.14 73.8153 170.211 74.6337 170.181V170.181Z" fill="#263238"/>
<path d="M81.2958 153.925C81.3961 154.346 82.8913 154.306 84.6073 154.687C86.3232 155.069 87.6779 155.691 87.9389 155.35C88.0593 155.179 87.8586 154.778 87.3267 154.346C86.6253 153.801 85.8101 153.42 84.9416 153.232C84.073 153.045 83.1733 153.055 82.3093 153.262C81.6069 153.443 81.2556 153.734 81.2958 153.925Z" fill="#263238"/>
<path d="M67.5683 153.794C67.7991 154.165 68.8528 153.914 70.0771 154.025C71.3013 154.135 72.3148 154.476 72.5858 154.145C72.7062 153.985 72.5858 153.633 72.1543 153.272C71.5868 152.836 70.9035 152.577 70.1896 152.527C69.4758 152.477 68.763 152.639 68.1403 152.991C67.6486 153.292 67.468 153.623 67.5683 153.794Z" fill="#263238"/>
<path d="M96.2373 166.388C96.4079 166.328 103.041 165.094 102.168 171.646C101.295 178.199 94.8926 175.982 94.9127 175.791C94.9328 175.6 96.2373 166.388 96.2373 166.388Z" fill="#FFBE9D"/>
<path d="M97.2411 173.573C97.2411 173.573 97.3414 173.663 97.5221 173.784C97.7799 173.933 98.0844 173.979 98.375 173.914C98.8346 173.7 99.2291 173.369 99.5183 172.952C99.8074 172.536 99.9808 172.051 100.021 171.546C100.116 170.987 100.081 170.414 99.9204 169.87C99.8895 169.654 99.8055 169.45 99.6758 169.274C99.5462 169.099 99.3751 168.959 99.1778 168.866C99.0523 168.812 98.9114 168.804 98.7807 168.845C98.6499 168.885 98.5381 168.971 98.4654 169.087C98.3449 169.258 98.375 169.398 98.3349 169.398C98.2948 169.398 98.2145 169.268 98.3349 169.007C98.3913 168.85 98.5015 168.719 98.646 168.636C98.8436 168.523 99.0773 168.49 99.2983 168.545C99.5498 168.642 99.7732 168.801 99.9483 169.006C100.124 169.211 100.245 169.456 100.302 169.719C100.505 170.327 100.557 170.974 100.452 171.606C100.407 172.189 100.193 172.746 99.8369 173.209C99.4806 173.672 98.997 174.022 98.4453 174.215C98.2647 174.239 98.0811 174.222 97.9076 174.167C97.7341 174.111 97.575 174.018 97.4418 173.894C97.2311 173.733 97.221 173.583 97.2411 173.573Z" fill="#EB996E"/>
<path d="M65.7929 144.171C66.9163 142.401 68.4654 140.942 70.2986 139.926C74.1443 137.535 78.6453 136.415 83.1633 136.725C87.6984 137.078 91.9188 139.179 94.9342 142.585C97.2398 145.378 98.674 148.788 99.0585 152.389C99.4333 155.976 99.0923 159.602 98.055 163.056C97.7338 164.612 96.9626 166.039 95.8373 167.16C95.0847 167.803 93.8303 168.164 93.158 167.482C92.7826 167.032 92.5673 166.471 92.5459 165.886C91.7933 160.688 91.0908 155.099 93.439 150.402C92.4007 148.599 91.0039 147.028 89.3347 145.786C88.4961 145.171 87.5433 144.729 86.5319 144.486C85.5205 144.243 84.4709 144.204 83.4442 144.371C80.4338 144.973 78.3265 147.643 75.7876 149.389C73.9573 150.626 71.859 151.41 69.6659 151.677C67.4727 151.944 65.2475 151.686 63.1738 150.924L65.7929 144.171Z" fill="#263238"/>
<path d="M73.328 174.165C73.404 174.788 73.5696 175.396 73.8197 175.971C73.9478 176.259 74.1345 176.516 74.3678 176.727C74.601 176.937 74.8758 177.097 75.1744 177.196C75.5022 177.264 75.842 177.25 76.1628 177.153C76.4835 177.057 76.775 176.882 77.0108 176.644C77.4711 176.155 77.766 175.533 77.8537 174.868C77.954 174.265 77.8537 173.513 77.2616 173.312C77.0172 173.257 76.7635 173.257 76.5191 173.312L73.1674 173.924" fill="#EB996E"/>
<path d="M74.0318 176.965C74.5809 177.112 75.1518 177.16 75.7177 177.105C76.3011 177.009 76.8273 176.697 77.1928 176.232C77.4074 175.949 77.5595 175.624 77.639 175.278C77.7186 174.932 77.7238 174.573 77.6544 174.225C77.6208 174.048 77.5634 173.876 77.4838 173.714C77.3935 173.553 77.4136 173.563 77.2731 173.563C77.0942 173.583 76.9166 173.613 76.7412 173.653L76.1893 173.754L74.2827 174.075C73.7014 174.213 73.1028 174.264 72.5065 174.225C73.0375 173.951 73.6108 173.768 74.2024 173.683C74.7443 173.543 75.3765 173.402 76.089 173.242L76.6308 173.121C76.8315 173.121 76.9821 173.031 77.243 173.011C77.4047 172.998 77.5664 173.037 77.7046 173.121C77.8224 173.213 77.9184 173.329 77.9856 173.463C78.0889 173.669 78.1632 173.888 78.2063 174.115C78.2939 174.543 78.2844 174.985 78.1784 175.409C78.0725 175.832 77.8729 176.227 77.5942 176.563C77.1319 177.103 76.4757 177.438 75.7678 177.497C75.3087 177.553 74.8431 177.48 74.4232 177.286C74.1322 177.125 74.0117 176.995 74.0318 176.965Z" fill="#263238"/>
<path d="M49.5957 160.026L48.0403 159.604L23.8262 183.136L4.1779 185.504C4.1779 185.504 4.3786 179.574 11.7542 172.007C18.3772 165.244 33.7808 157.216 38.9989 153.061C39.6725 152.492 40.4354 152.038 41.2567 151.717L49.5957 160.026Z" fill="#FFBE9D"/>
<path d="M49.6062 148.827L52.0848 148.124L57.9251 145.355L64.5682 147.833C64.5682 147.833 64.4177 150.101 62.6716 149.479L69.6358 151.777C69.6358 151.777 69.0638 153.433 68.7527 153.543C68.4416 153.654 72.8369 154.015 72.8369 154.015C72.8369 154.015 72.8369 156.253 68.6724 156.212C64.508 156.172 62.8924 155.46 62.8924 155.46L59.5508 156.353L59.6812 158.36L64.237 158.29L64.0263 160.839C62.091 161.247 60.1345 161.549 58.1659 161.742C58.1659 161.742 51.1415 161.842 49.2349 160.919C47.3283 159.996 44.8998 158.681 44.8998 158.681L41.2572 151.737L49.6062 148.827Z" fill="#FFBE9D"/>
<path d="M55.8771 150.001C55.8771 150.061 56.2684 149.871 56.8806 149.59C57.7001 149.238 58.4889 148.818 59.2388 148.335H58.9377L59.2086 148.506C60.0379 149.036 60.9729 149.378 61.9482 149.509C62.6907 149.61 63.1523 149.509 63.1523 149.509C61.8719 149.204 60.6371 148.731 59.4796 148.104L59.2287 147.944L59.0782 147.844L58.9277 147.954C58.1148 148.516 57.2619 148.957 56.6999 149.309C56.138 149.66 55.8269 149.951 55.8771 150.001Z" fill="#EB996E"/>
<path d="M58.0154 153.543C58.0154 153.543 58.467 153.704 59.1393 153.413C59.8116 153.122 60.5643 152.409 61.5176 152.008H61.2767C61.7047 152.296 62.1542 152.551 62.6214 152.77C63.7962 153.332 65.0735 153.646 66.3745 153.694C66.909 153.762 67.4522 153.704 67.96 153.523C66.201 153.382 64.4745 152.969 62.8422 152.299C62.3975 152.092 61.9683 151.854 61.5577 151.586L61.4273 151.516H61.3169C60.2331 152.068 59.6009 152.801 59.0089 153.102C58.4168 153.403 58.0154 153.463 58.0154 153.543Z" fill="#EB996E"/>
<path d="M51.7938 155.721C51.7938 155.801 52.3056 155.651 53.0983 155.661C54.1247 155.674 55.1265 155.976 55.9884 156.534C56.5587 156.902 57.0472 157.383 57.4234 157.949L57.4836 158.039H57.5739C58.3467 158.259 59.1491 158.357 59.9521 158.33C59.2334 157.965 58.461 157.718 57.6642 157.597L57.8147 157.698C57.4381 157.045 56.9119 156.491 56.2794 156.082C55.3362 155.463 54.212 155.181 53.0883 155.279C52.2253 155.38 51.7637 155.671 51.7938 155.721Z" fill="#EB996E"/>
<path d="M44.8998 158.661C44.96 158.714 45.0276 158.758 45.1005 158.792L45.7327 159.153L48.1611 160.467C48.7352 160.82 49.3525 161.096 49.9975 161.29C50.774 161.471 51.5619 161.598 52.3557 161.672C54.0616 161.842 56.0084 161.912 58.1659 161.912L60.785 161.641C61.754 161.561 62.7142 161.396 63.6549 161.15H63.7553V161.019C63.8958 160.146 64.0463 159.193 64.2069 158.22L64.257 157.939H63.9761L59.641 158.119L59.9019 158.34C59.9019 157.728 59.8116 157.045 59.7715 156.333L59.5808 156.594L62.9324 155.701H62.7618C64.3888 156.196 66.0788 156.452 67.7793 156.463C68.6611 156.519 69.5464 156.475 70.4185 156.333C70.8945 156.274 71.3526 156.115 71.7626 155.866C72.1726 155.616 72.525 155.283 72.7967 154.888C72.948 154.624 73.0372 154.329 73.0576 154.025V153.794H72.8067C71.8033 153.704 70.7295 153.614 69.716 153.503L68.9734 153.403H68.8129V153.453C68.8431 153.48 68.8649 153.515 68.8756 153.554C68.8862 153.594 68.8854 153.635 68.8731 153.674C68.8731 153.764 68.6925 153.884 68.7326 153.844C68.7915 153.82 68.8458 153.786 68.8931 153.744C69.0017 153.631 69.093 153.502 69.1641 153.363C69.3962 152.902 69.5973 152.426 69.7662 151.938L69.8565 151.687L69.6056 151.607L62.5812 149.319L62.4207 149.78C62.7026 149.884 63.0056 149.919 63.3037 149.881C63.6095 149.826 63.8865 149.667 64.0864 149.429C64.4219 148.992 64.6177 148.464 64.6484 147.914V147.743L64.4678 147.673L57.8147 145.224H57.7344H57.6541L51.8238 148.024L49.3854 148.727L47.258 149.479L43.8863 150.703L41.7689 151.486C41.5183 151.561 41.2762 151.662 41.0464 151.787C41.301 151.731 41.5522 151.661 41.799 151.576L43.9465 150.884L47.3483 149.75L49.4757 149.038L51.9242 148.375L57.7845 145.636H57.614L64.257 148.134L64.0965 147.894C64.0705 148.341 63.9134 148.77 63.6449 149.128C63.5002 149.272 63.3151 149.368 63.1143 149.404C62.9135 149.44 62.7065 149.413 62.521 149.329L62.3605 149.8L69.3146 152.108L69.1541 151.777C69.0007 152.24 68.8094 152.69 68.5821 153.122C68.539 153.212 68.4851 153.296 68.4215 153.373V153.373C68.4496 153.408 68.4701 153.449 68.4817 153.493V153.493C68.3814 153.232 68.4817 153.423 68.4115 153.373H68.3412C68.2953 153.411 68.2635 153.464 68.2509 153.523C68.2414 153.566 68.2429 153.611 68.2552 153.653C68.2675 153.695 68.2902 153.733 68.3212 153.764C68.4014 153.844 68.3814 153.814 68.4014 153.824H68.4917H68.7025L69.4752 153.925C70.4787 154.045 71.4821 154.135 72.5759 154.226L72.3451 153.975C72.3218 154.183 72.257 154.384 72.1545 154.567C71.9214 154.895 71.6226 155.17 71.277 155.376C70.9314 155.581 70.5467 155.713 70.1475 155.761C69.3119 155.897 68.4635 155.937 67.6187 155.881C65.9847 155.876 64.3597 155.64 62.792 155.179H62.6916H62.6214L59.2797 156.082H59.079V156.283C59.079 156.975 59.1694 157.658 59.2095 158.29V158.531H59.4503L63.7754 158.33L63.5345 158.059C63.384 159.062 63.2335 159.996 63.103 160.869L63.2234 160.708C62.3265 160.933 61.4142 161.09 60.494 161.18L57.8949 161.471C55.7575 161.471 53.8208 161.471 52.1249 161.31C51.3424 161.257 50.5645 161.15 49.7968 160.989C49.1658 160.81 48.5592 160.554 47.9905 160.226L45.5219 159.002L44.8697 158.701C44.9801 158.681 44.9098 158.651 44.8998 158.661Z" fill="#EB996E"/>
<path d="M53.2891 151.105C53.9256 152.173 54.8103 153.071 55.8681 153.724C56.8345 154.508 57.9728 155.051 59.1896 155.31C59.2498 155.169 57.7847 154.457 56.1792 153.303C54.5736 152.149 53.4095 151.005 53.2891 151.105Z" fill="#EB996E"/>
<path d="M4.3881 184.772L23.8256 183.136L46.7453 191.857L51.7627 194.927L44.6179 219.432C44.6179 219.432 8.70309 198.269 7.17779 196.463C5.80959 194.88 4.84192 192.992 4.3564 190.958C3.87089 188.923 3.88177 186.801 4.3881 184.772V184.772Z" fill="#FFB64F"/>
<path d="M108.151 202.784L114.834 206.929L99.4004 267.69L102.2 302.722C98.1861 306.194 88.1513 309.174 69.085 308.09C50.0188 307.007 37.2946 298.708 37.2946 298.708L39.1209 262.673L43.466 222.011L48.3329 194.205L63.024 195.268L68.7539 191.877L71.3228 193.161L74.6142 202.293L83.184 196.091L93.2189 191.264L96.8816 198.098L108.151 202.784Z" fill="#FFB64F"/>
<path d="M48.332 201.279C48.1181 201.711 47.9435 202.161 47.8102 202.624C47.4891 203.507 47.0877 204.791 46.606 206.397C45.3793 210.576 44.3744 214.816 43.5956 219.101C42.8406 223.385 42.3114 227.706 42.0101 232.046C41.8997 233.712 41.8495 235.056 41.8395 235.99C41.7878 236.473 41.7878 236.961 41.8395 237.445C41.9347 236.968 41.9918 236.485 42.0101 236C42.1004 234.996 42.2108 233.662 42.3512 232.076C42.6623 228.765 43.1942 224.189 44.0873 219.191C44.9804 214.194 46.0441 209.718 46.8971 206.497C47.3085 204.962 47.6597 203.677 47.9005 202.684C48.0959 202.233 48.2406 201.762 48.332 201.279V201.279Z" fill="#263238"/>
<path d="M77.3526 201.761C77.8419 201.677 78.3115 201.504 78.7374 201.249C79.9257 200.623 80.9554 199.734 81.7479 198.65L81.3867 198.55C81.5955 201.543 82.1995 204.496 83.1829 207.33L83.2933 207.651L83.5743 207.461L84.2767 206.969C87.7387 204.591 90.8495 202.413 93.0873 200.808L95.7164 198.891C96.052 198.672 96.3617 198.417 96.6396 198.128C96.2838 198.287 95.9472 198.486 95.6362 198.72L92.9167 200.507C90.6187 202.022 87.4778 204.159 84.0258 206.528L83.3133 207.009L83.7147 207.14C82.7405 204.346 82.107 201.445 81.8282 198.5V197.958L81.5171 198.399C80.7708 199.465 79.8104 200.364 78.6973 201.038C77.8243 201.53 77.3326 201.711 77.3526 201.761Z" fill="#263238"/>
<path d="M63.6153 196.352C64.6055 197.668 65.6959 198.906 66.8767 200.055L67.0573 200.246L67.2379 200.045C67.9117 199.256 68.6393 198.515 69.4155 197.827C69.8369 197.466 70.2484 197.125 70.6598 196.824L71.2719 196.372C71.3179 196.361 71.365 196.354 71.4124 196.352C71.4124 196.352 71.4124 196.352 71.5027 196.503L72.436 198.891C72.6903 199.645 73.0269 200.368 73.4395 201.048C73.3148 200.263 73.0993 199.496 72.7972 198.76C72.5363 198.008 72.2553 197.195 71.9643 196.332C71.9377 196.24 71.8929 196.155 71.8326 196.081C71.7722 196.006 71.6976 195.945 71.6131 195.901C71.5159 195.868 71.4124 195.859 71.3111 195.875C71.2099 195.891 71.1139 195.93 71.0311 195.991L70.3889 196.452C69.9574 196.764 69.5259 197.115 69.1044 197.456C68.3046 198.158 67.5661 198.927 66.8967 199.754H67.258C66.1337 198.527 64.9158 197.39 63.6153 196.352V196.352Z" fill="#263238"/>
<path d="M67.5885 305.461C61.1551 304.253 54.5272 304.581 48.2446 306.419C41.962 308.257 36.2024 311.553 31.4348 316.038C26.6671 320.524 23.0263 326.072 20.8088 332.23C18.5913 338.389 17.8598 344.985 18.6738 351.48C19.4879 357.975 21.8245 364.186 25.4934 369.607C29.1623 375.028 34.0598 379.506 39.7869 382.676C45.514 385.846 51.9089 387.619 58.4508 387.85C64.9926 388.08 71.4965 386.763 77.4327 384.004V384.004C85.4133 380.288 92.008 374.134 96.2664 366.43C100.525 358.725 102.227 349.867 101.128 341.133C100.028 332.399 96.1843 324.239 90.1495 317.83C84.1147 311.421 76.2008 307.093 67.5484 305.471L67.5885 305.461ZM52.767 384.415C43.6919 382.701 35.5278 377.801 29.7461 370.599C23.9645 363.397 20.9457 354.366 21.234 345.135C21.5222 335.904 25.0984 327.079 31.3181 320.252C37.5377 313.425 45.9917 309.044 55.1561 307.898C64.3204 306.753 73.5924 308.92 81.3008 314.007C89.0091 319.094 94.6467 326.767 97.1974 335.644C99.7481 344.52 99.0441 354.016 95.2123 362.419C91.3805 370.822 84.673 377.58 76.2988 381.475C68.955 384.891 60.7254 385.919 52.767 384.415V384.415Z" fill="#455A64"/>
<path d="M59.9923 389.895C70.9398 389.91 81.4955 385.822 89.5775 378.437C97.6595 371.053 102.681 360.908 103.652 350.004C104.622 339.099 101.472 328.227 94.8211 319.531C88.1705 310.835 78.5028 304.947 67.7248 303.028C56.9468 301.109 45.8409 303.299 36.5977 309.165C27.3544 315.031 20.6447 324.147 17.7921 334.717C14.9395 345.286 16.1509 356.541 21.1876 366.261C26.2242 375.981 34.7203 383.461 45.0002 387.225C49.8016 388.99 54.8768 389.894 59.9923 389.895V389.895ZM59.902 309.505C65.0217 309.502 70.0858 310.566 74.7704 312.632C79.455 314.697 83.6569 317.718 87.1073 321.5C90.5577 325.282 93.1806 329.743 94.8083 334.597C96.436 339.451 97.0326 344.592 96.5599 349.69C96.0872 354.787 94.5557 359.73 92.0632 364.203C89.5708 368.675 86.1724 372.577 82.0854 375.661C77.9984 378.744 73.3127 380.94 68.3283 382.109C63.3438 383.278 58.1702 383.394 53.1385 382.449V382.449C47.3947 381.359 41.9917 378.922 37.3739 375.337C32.756 371.752 29.0553 367.122 26.5762 361.827C23.9712 356.222 22.8194 350.052 23.2272 343.885C23.635 337.717 25.5892 331.752 28.9096 326.539C32.23 321.326 36.8096 317.033 42.226 314.056C47.6425 311.079 53.7214 309.514 59.902 309.505V309.505Z" fill="#455A64"/>
<path d="M161.053 305.732L160.682 304.829C159.899 302.892 158.173 301.758 156.829 302.31L96.0776 327.026C95.7765 327.146 95.6762 327.598 95.8468 328.029L98.4358 334.392C98.6164 334.823 98.9977 335.074 99.2988 334.953L160.05 310.187C161.395 309.636 161.846 307.629 161.053 305.732Z" fill="#455A64"/>
<path d="M104.316 235.729L111.622 259.903L107.959 309.174L118.736 310.529C118.736 310.529 131.079 268.603 129.855 261.017C128.631 253.43 123.593 231.333 123.593 231.333L104.316 235.729Z" fill="#FFBE9D"/>
<path d="M107.989 308.823L102.971 317.393L99.8406 325.42L104.527 323.584C104.527 323.584 106.534 333.278 107.347 333.529C108.159 333.779 110.417 332.997 110.187 331.14C110.521 331.466 110.925 331.711 111.369 331.857C111.812 332.003 112.283 332.047 112.745 331.983C114.17 331.692 114.512 330.769 114.351 328.973C114.351 328.973 116.007 330.317 117 329.485C117.304 329.185 117.541 328.824 117.695 328.427C117.849 328.029 117.916 327.603 117.893 327.177C117.893 327.177 120.051 327.357 120.352 326.243C120.669 324.413 120.709 322.546 120.472 320.704C120.221 319.48 119.178 314.502 119.178 314.502L118.696 310.489L107.989 308.823Z" fill="#FFBE9D"/>
<path d="M109.164 325.551C109.555 326.423 109.809 327.351 109.916 328.301C110.164 329.226 110.269 330.184 110.227 331.141C109.834 330.269 109.58 329.341 109.475 328.391C109.227 327.466 109.122 326.508 109.164 325.551V325.551Z" fill="#EB996E"/>
<path d="M113.558 324.437C113.926 325.114 114.155 325.857 114.23 326.624C114.453 327.365 114.532 328.142 114.461 328.912C114.101 328.229 113.873 327.483 113.789 326.715C113.571 325.976 113.493 325.204 113.558 324.437V324.437Z" fill="#EB996E"/>
<path d="M117.231 323.403C117.449 324.012 117.565 324.653 117.573 325.3C117.743 326.303 118.014 327.156 117.884 327.206C117.438 326.694 117.173 326.048 117.131 325.37C116.979 324.718 117.014 324.036 117.231 323.403V323.403Z" fill="#EB996E"/>
<path d="M104.196 320.784C104.584 321.64 104.854 322.545 104.999 323.474C105.289 324.368 105.465 325.295 105.521 326.233C105.036 325.419 104.712 324.52 104.567 323.584C104.271 322.682 104.145 321.733 104.196 320.784V320.784Z" fill="#EB996E"/>
<path d="M130.448 277.293C130.448 276.47 133.819 264.99 132.796 259.039C131.772 253.089 119.53 212.879 117.884 210.009C116.587 208.073 114.777 206.538 112.656 205.574C110.294 206.854 108.213 208.597 106.539 210.699C104.865 212.8 103.632 215.218 102.912 217.806C100.453 226.627 100.453 237.695 100.453 237.695L110.298 262.11L109.124 275.978L130.448 277.293Z" fill="#FFB64F"/>
<path d="M101.076 236.893C101.176 236.893 100.986 235.087 101.076 232.196C101.138 230.516 101.302 228.84 101.568 227.179C102.205 223.082 103.464 219.106 105.301 215.388C106.047 213.87 106.885 212.399 107.809 210.983C109.395 208.554 110.579 207.2 110.509 207.139C110.182 207.411 109.886 207.717 109.626 208.053C108.875 208.905 108.178 209.803 107.538 210.742C106.562 212.145 105.684 213.614 104.909 215.137C103.009 218.886 101.731 222.919 101.126 227.079C100.886 228.774 100.758 230.484 100.745 232.196C100.729 233.346 100.786 234.496 100.915 235.638C100.929 236.061 100.983 236.481 101.076 236.893V236.893Z" fill="#263238"/>
<path d="M101.707 242C101.953 243.031 102.288 244.039 102.711 245.011C103.423 246.867 104.497 249.386 105.721 252.136L108.892 259.16C109.278 260.158 109.734 261.127 110.257 262.06C110.011 261.029 109.676 260.022 109.253 259.05C108.541 257.193 107.467 254.675 106.243 251.925L103.072 244.901C102.686 243.903 102.23 242.934 101.707 242V242Z" fill="#263238"/>
<path d="M109.725 263.054C111.891 261.898 114.146 260.918 116.469 260.124C118.845 259.503 121.268 259.077 123.714 258.849C122.996 258.692 122.257 258.652 121.526 258.729C119.76 258.813 118.011 259.113 116.318 259.622C114.623 260.129 112.998 260.847 111.481 261.759C110.831 262.094 110.238 262.531 109.725 263.054V263.054Z" fill="#263238"/>
<path d="M45.6427 332.204C45.5524 332.315 53.4598 339.229 63.3141 347.668C73.1683 356.107 81.2263 362.841 81.3166 362.72C81.4069 362.6 73.4995 355.696 63.6452 347.267C53.791 338.837 45.733 332.094 45.6427 332.204Z" fill="white"/>
<path d="M35.4675 332.204C35.3672 332.315 42.0303 338.225 50.3492 345.34C58.6681 352.455 65.4718 358.195 65.5721 358.084C65.6725 357.974 58.9993 352.063 50.6904 344.948C42.3816 337.834 35.5578 332.094 35.4675 332.204Z" fill="white"/>
<path d="M20.4844 346.303C20.4844 346.303 20.4844 346.092 20.5447 345.671C20.6049 345.249 20.6049 344.607 20.6651 343.794C20.6651 343.383 20.6651 342.921 20.7454 342.419C20.8256 341.918 20.9059 341.366 20.9962 340.764C21.0865 340.162 21.1869 339.529 21.2973 338.847C21.4077 338.165 21.6385 337.462 21.8091 336.699C22.735 333.011 24.2099 329.483 26.1842 326.233C28.7682 321.915 32.1579 318.133 36.1689 315.094L37.8648 313.83C38.4669 313.439 39.0891 313.087 39.7113 312.706C40.3334 312.325 40.9455 311.903 41.6279 311.592L43.6349 310.589L44.6384 310.097L45.7322 309.706L47.9398 308.903C48.6925 308.652 49.4752 308.491 50.2479 308.281C51.0291 308.053 51.8233 307.872 52.6261 307.739C54.2635 307.435 55.9198 307.244 57.5834 307.167C58.4263 307.167 59.2792 307.056 60.1422 307.067L62.7312 307.207C63.1728 307.207 63.6143 307.207 64.0458 307.287L65.3503 307.488C66.2234 307.639 67.1165 307.739 67.9895 307.919C69.7641 308.316 71.5106 308.829 73.2177 309.455C74.9694 310.087 76.676 310.838 78.3254 311.703C79.1583 312.154 79.9511 312.706 80.7739 313.158C81.1753 313.419 81.5968 313.639 81.9781 313.92L83.1321 314.793C86.3591 317.094 89.1806 319.915 91.4811 323.142L92.3843 324.347L93.177 325.641L93.9597 326.936C94.2374 327.361 94.4823 327.807 94.6923 328.27L96.0169 331.03C96.3781 332.033 96.7294 332.966 97.0806 333.94C99.7767 341.961 99.7767 350.644 97.0806 358.666C96.7193 359.669 96.3681 360.603 96.0169 361.566C95.6657 362.529 95.1238 363.412 94.6823 364.335L94.3511 365.018L93.9497 365.67L93.167 366.965L92.3742 368.259L91.4711 369.463C90.2964 371.047 89.0192 372.552 87.6478 373.969C86.2473 375.323 84.7625 376.586 83.2024 377.752L82.0484 378.615C81.657 378.906 81.2355 379.117 80.8341 379.378C80.0113 379.859 79.2185 380.381 78.3957 380.833C76.7439 381.7 75.0338 382.451 73.2779 383.081C71.5708 383.707 69.8243 384.22 68.0497 384.616C67.1767 384.797 66.2836 384.897 65.4105 385.047L64.106 385.248C63.6645 385.308 63.233 385.298 62.7915 385.328L60.2025 385.469C59.3395 385.469 58.4865 385.399 57.6436 385.369C55.98 385.292 54.3237 385.101 52.6863 384.797C51.8826 384.668 51.0881 384.487 50.3081 384.255C49.5354 384.044 48.7426 383.883 48.0001 383.643L45.7924 382.83L44.6986 382.438L43.6951 381.947L41.6881 380.943C41.0058 380.632 40.4037 380.191 39.7715 379.829C39.1393 379.468 38.5271 379.097 37.9251 378.705L36.2292 377.441C32.2157 374.405 28.8256 370.623 26.2445 366.302C24.2555 363.078 22.7605 359.574 21.8091 355.906C21.6385 355.144 21.3776 354.451 21.2973 353.759C21.217 353.066 21.0865 352.434 20.9962 351.842C20.9059 351.25 20.7955 350.698 20.7454 350.196C20.6952 349.695 20.6851 349.193 20.6651 348.812C20.6049 348.009 20.5647 347.387 20.5447 346.945C20.5447 346.524 20.4844 346.303 20.4844 346.303C20.4844 346.303 20.4844 346.524 20.4844 346.945C20.4844 347.367 20.4845 348.009 20.5547 348.822C20.5547 349.236 20.5748 349.698 20.6149 350.206C20.6149 350.708 20.7554 351.26 20.8357 351.862L21.1167 353.789C21.2475 354.519 21.415 355.243 21.6184 355.956C22.5035 359.68 23.959 363.244 25.9334 366.523C28.5189 370.895 31.9266 374.726 35.9682 377.802L37.6742 379.087C38.2763 379.478 38.9085 379.849 39.5306 380.231C40.1528 380.612 40.7749 381.044 41.4573 381.365L43.5145 382.368L44.518 382.86L45.6218 383.271L47.8495 384.084C48.6021 384.345 49.3949 384.506 50.1877 384.716C50.973 384.957 51.7745 385.141 52.586 385.268C54.2423 385.584 55.919 385.782 57.6034 385.86C58.4664 385.86 59.3194 385.981 60.1924 385.971L62.8216 385.84C63.2531 385.84 63.7046 385.84 64.1462 385.76L65.4708 385.559C66.3538 385.409 67.2469 385.308 68.14 385.128C69.9354 384.731 71.7021 384.215 73.4284 383.582C75.21 382.952 76.9439 382.194 78.6164 381.314C79.4493 380.863 80.2521 380.311 81.085 379.849C81.4964 379.588 81.9279 379.368 82.3193 379.077L83.4532 378.184C85.0397 377.012 86.5451 375.735 87.9589 374.36C89.363 372.922 90.6641 371.386 91.8524 369.764L92.7756 368.55L93.5684 367.236L94.3712 365.921L94.7726 365.269L95.1138 364.566L96.4986 361.767L97.5823 358.826C100.319 350.688 100.319 341.878 97.5823 333.739L96.4986 330.819C96.047 329.886 95.5954 328.953 95.1539 328.019C94.9361 327.552 94.6881 327.1 94.4113 326.665L93.6085 325.35L92.8057 324.046L91.8926 322.831C90.6982 321.215 89.3975 319.679 87.999 318.235C86.5852 316.861 85.0799 315.583 83.4934 314.412L82.3193 313.539C81.925 313.257 81.5164 312.996 81.095 312.756C80.2622 312.275 79.4594 311.753 78.6265 311.291C76.9519 310.416 75.2184 309.658 73.4384 309.023C71.7122 308.391 69.9454 307.874 68.1501 307.478C67.257 307.297 66.3639 307.197 65.4808 307.046L64.1562 306.846C63.7147 306.796 63.2731 306.796 62.8316 306.765L60.2025 306.635C59.3395 306.635 58.4764 306.715 57.6235 306.745C55.9391 306.823 54.2624 307.021 52.6061 307.337C51.7966 307.475 50.9959 307.659 50.2077 307.889C49.425 308.1 48.6322 308.271 47.8696 308.522L45.6419 309.334L44.5481 309.746L43.5446 310.248L41.5376 311.251C40.8731 311.592 40.2266 311.967 39.6009 312.375C38.9787 312.756 38.3465 313.128 37.7444 313.519L36.0385 314.803C31.9968 317.88 28.5892 321.71 26.0036 326.083C24.0293 329.361 22.5737 332.926 21.6886 336.649C21.518 337.412 21.2672 338.124 21.1869 338.817C21.1066 339.509 20.9962 340.151 20.9059 340.744C20.8156 341.336 20.7253 341.898 20.6851 342.399C20.645 342.901 20.6851 343.403 20.6249 343.784C20.6249 344.597 20.6249 345.219 20.5547 345.661C20.4845 346.102 20.4844 346.303 20.4844 346.303Z" fill="#263238"/>
<path d="M35.0449 367.246C34.7378 366.778 34.4026 366.329 34.0414 365.901C33.1293 364.699 32.2915 363.442 31.5327 362.138C28.9939 357.85 27.4107 353.064 26.8911 348.107C26.3716 343.15 26.9279 338.14 28.5223 333.418C29.0033 331.987 29.5627 330.583 30.1981 329.214C30.4667 328.727 30.6982 328.22 30.8905 327.698C30.8905 327.698 30.7901 327.809 30.6396 328.05C30.4891 328.291 30.2683 328.642 30.0175 329.123C29.3021 330.467 28.6883 331.863 28.1811 333.298C26.4615 338.051 25.839 343.131 26.3603 348.158C26.8817 353.186 28.5333 358.03 31.1915 362.329C31.9913 363.626 32.8834 364.863 33.8608 366.032C34.202 366.443 34.503 366.744 34.6937 366.955C34.8844 367.166 35.0249 367.256 35.0449 367.246Z" fill="#263238"/>
<path d="M37.1217 370.848C37.0515 370.979 37.3626 371.29 37.8141 371.551C38.2657 371.811 38.6972 371.912 38.7674 371.791C38.8377 371.671 38.5266 371.35 38.075 371.089C37.6235 370.828 37.192 370.728 37.1217 370.848Z" fill="#263238"/>
<path d="M88.8633 363.192C88.964 363.046 89.045 362.887 89.1041 362.72C89.2446 362.409 89.4653 361.948 89.6961 361.325C90.3643 359.583 90.8977 357.791 91.2917 355.967C92.6126 349.911 92.4579 343.627 90.8407 337.643C89.2235 331.66 86.1911 326.153 81.9994 321.587C80.7465 320.202 79.3841 318.92 77.9252 317.754C77.4235 317.333 76.992 317.052 76.711 316.841C76.4301 316.63 76.2795 316.54 76.2595 316.56C76.2394 316.58 76.8013 317.052 77.7948 317.915C79.1923 319.129 80.5064 320.437 81.7285 321.828C85.7984 326.407 88.7476 331.869 90.3429 337.783C91.9382 343.698 92.1359 349.902 90.9204 355.907C90.5566 357.719 90.0738 359.506 89.4754 361.255C89.084 362.499 88.8231 363.182 88.8633 363.192Z" fill="white"/>
<path d="M65.5706 314.011C67.0854 314.481 68.6849 314.615 70.2568 314.402C69.5279 314.078 68.7361 313.921 67.9388 313.941C67.1536 313.792 66.3455 313.816 65.5706 314.011V314.011Z" fill="white"/>
</g>
<defs>
<filter id="filter0_d_7_37867" x="0" y="2.62817" width="399.997" height="475.585" filterUnits="userSpaceOnUse" color-interpolation-filters="sRGB">
<feFlood flood-opacity="0" result="BackgroundImageFix"/>
<feColorMatrix in="SourceAlpha" type="matrix" values="0 0 0 0 0 0 0 0 0 0 0 0 0 0 0 0 0 0 127 0" result="hardAlpha"/>
<feOffset dy="4"/>
<feGaussianBlur stdDeviation="2"/>
<feComposite in2="hardAlpha" operator="out"/>
<feColorMatrix type="matrix" values="0 0 0 0 0 0 0 0 0 0 0 0 0 0 0 0 0 0 0.25 0"/>
<feBlend mode="normal" in2="BackgroundImageFix" result="effect1_dropShadow_7_37867"/>
<feBlend mode="normal" in="SourceGraphic" in2="effect1_dropShadow_7_37867" result="shape"/>
</filter>
</defs>
</svg>
